<svg width="16" height="16" viewBox="0 0 16 16" fill="none" xmlns="http://www.w3.org/2000/svg">
<path d="M1.38008 4.50668L3.62674 13.5267C3.78674 14.2 4.38673 14.6667 5.08007 14.6667H13.8401C14.8467 14.6667 15.5667 13.68 15.2667 12.7133L12.4601 3.70004C12.2667 3.07338 11.6867 2.63998 11.0334 2.63998H2.8334C2.20007 2.63998 1.6734 3.02665 1.4534 3.55999C1.32673 3.84665 1.30008 4.17335 1.38008 4.50668Z" stroke="#1E1E1E" stroke-miterlimit="10"/>
<path d="M5.33337 14.6667H2.14671C1.28671 14.6667 0.613381 13.94 0.673381 13.08L1.33337 4" stroke="#1E1E1E" stroke-miterlimit="10" stroke-linecap="round" stroke-linejoin="round"/>
<path d="M9.54663 4.25335L8.85329 1.37338" stroke="#1E1E1E" stroke-miterlimit="10" stroke-linecap="round" stroke-linejoin="round"/>
<path d="M5.07996 4.26001L4.45329 1.3667" stroke="#1E1E1E" stroke-miterlimit="10" stroke-linecap="round" stroke-linejoin="round"/>
<path d="M10.8667 8H5.53337" stroke="#1E1E1E" stroke-miterlimit="10" stroke-linecap="round" stroke-linejoin="round"/>
<path d="M11.5333 10.6667H6.19999" stroke="#1E1E1E" stroke-miterlimit="10" stroke-linecap="round" stroke-linejoin="round"/>
</svg>
