<svg width="17" height="16" viewBox="0 0 17 16" fill="none" xmlns="http://www.w3.org/2000/svg">
<path d="M11.8334 12.2867H9.16671L6.20003 14.26C5.76003 14.5533 5.16671 14.24 5.16671 13.7067V12.2867C3.16671 12.2867 1.83337 10.9534 1.83337 8.95337V4.95333C1.83337 2.95333 3.16671 1.62 5.16671 1.62H11.8334C13.8334 1.62 15.1667 2.95333 15.1667 4.95333V8.95337C15.1667 10.9534 13.8334 12.2867 11.8334 12.2867Z" stroke="#1E1E1E" stroke-miterlimit="10" stroke-linecap="round" stroke-linejoin="round"/>
<path d="M8.49996 7.57333V7.43336C8.49996 6.98003 8.77998 6.74002 9.05998 6.54668C9.33331 6.36002 9.60661 6.12002 9.60661 5.68002C9.60661 5.06669 9.11329 4.57333 8.49996 4.57333C7.88663 4.57333 7.39331 5.06669 7.39331 5.68002" stroke="#1E1E1E" stroke-linecap="round" stroke-linejoin="round"/>
<path d="M8.49696 9.16668H8.50296" stroke="#1E1E1E" stroke-linecap="round" stroke-linejoin="round"/>
</svg>
