<svg width="17" height="16" viewBox="0 0 17 16" fill="none" xmlns="http://www.w3.org/2000/svg">
<path d="M8.60671 7.24668C8.54004 7.24001 8.46004 7.24001 8.38671 7.24668C6.80004 7.19334 5.54004 5.89334 5.54004 4.29334C5.54004 2.66001 6.86004 1.33334 8.50004 1.33334C10.1334 1.33334 11.46 2.66001 11.46 4.29334C11.4534 5.89334 10.1934 7.19334 8.60671 7.24668Z" stroke="#1E1E1E" stroke-linecap="round" stroke-linejoin="round"/>
<path d="M5.27335 9.70666C3.66002 10.7867 3.66002 12.5467 5.27335 13.62C7.10669 14.8467 10.1134 14.8467 11.9467 13.62C13.56 12.54 13.56 10.78 11.9467 9.70666C10.12 8.48666 7.11335 8.48666 5.27335 9.70666Z" stroke="#1E1E1E" stroke-linecap="round" stroke-linejoin="round"/>
</svg>
