<svg width="16" height="16" viewBox="0 0 16 16" fill="none" xmlns="http://www.w3.org/2000/svg">
<path d="M5.33337 8.13333H10" stroke="#1E1E1E" stroke-miterlimit="10" stroke-linecap="round" stroke-linejoin="round"/>
<path d="M5.33337 10.8H8.25337" stroke="#1E1E1E" stroke-miterlimit="10" stroke-linecap="round" stroke-linejoin="round"/>
<path d="M6.66671 4.00001H9.33337C10.6667 4.00001 10.6667 3.33334 10.6667 2.66668C10.6667 1.33334 10 1.33334 9.33337 1.33334H6.66671C6.00004 1.33334 5.33337 1.33334 5.33337 2.66668C5.33337 4.00001 6.00004 4.00001 6.66671 4.00001Z" stroke="#1E1E1E" stroke-miterlimit="10" stroke-linecap="round" stroke-linejoin="round"/>
<path d="M10.6667 2.67999C12.8867 2.79999 14 3.61999 14 6.66666V10.6667C14 13.3333 13.3333 14.6667 10 14.6667H6C2.66667 14.6667 2 13.3333 2 10.6667V6.66666C2 3.62666 3.11333 2.79999 5.33333 2.67999" stroke="#1E1E1E" stroke-miterlimit="10" stroke-linecap="round" stroke-linejoin="round"/>
</svg>
